<?xml version="1.0" encoding="UTF-8" ?>
<!DOCTYPE svg PUBLIC "-//W3C//DTD SVG 1.1//EN" "http://www.w3.org/Graphics/SVG/1.1/DTD/svg11.dtd">
<svg width="916pt" height="541pt" viewBox="0 0 916 541" version="1.1" xmlns="http://www.w3.org/2000/svg">
<g id="#ffffffff">
<path fill="#ffffff" opacity="1.00" d=" M 585.81 27.76 C 606.62 21.73 628.37 19.29 650.00 19.50 C 672.13 19.46 694.37 22.34 715.43 29.31 C 721.47 31.36 727.62 33.10 733.57 35.42 C 749.70 41.76 765.70 48.97 779.74 59.27 C 784.21 62.73 788.99 66.15 791.86 71.15 C 783.56 66.48 775.10 62.04 766.18 58.67 C 747.19 50.72 727.01 46.17 706.83 42.45 C 695.58 40.99 684.37 39.23 673.09 38.07 C 659.40 37.01 645.69 35.93 631.96 36.30 C 628.85 36.28 626.16 37.98 623.75 39.74 C 615.07 46.14 605.99 51.98 597.27 58.33 C 593.61 61.09 589.37 62.98 584.91 64.01 C 576.74 65.96 568.67 68.28 560.54 70.38 C 539.66 75.56 519.02 81.70 498.02 86.37 C 497.50 91.56 497.28 96.77 497.34 101.98 C 497.47 111.66 496.23 121.30 496.36 130.98 C 496.51 140.32 495.40 149.62 495.37 158.96 C 495.33 164.99 495.19 171.03 495.06 177.06 C 500.86 176.50 506.62 175.61 512.37 174.63 C 539.84 170.88 567.33 167.30 594.79 163.52 C 603.25 162.10 611.77 161.08 620.29 160.07 C 626.63 159.27 632.92 160.73 639.18 161.52 C 652.29 163.20 665.35 165.23 678.47 166.80 C 683.63 167.41 688.76 168.23 693.90 169.07 C 701.69 170.36 709.57 171.08 717.37 172.33 C 731.19 174.59 745.17 175.70 758.97 178.03 C 777.22 180.39 795.39 183.25 813.66 185.46 C 825.10 187.26 836.58 188.77 848.08 190.13 L 848.99 190.25 C 848.03 198.70 846.80 207.11 846.00 215.58 C 837.65 216.54 829.40 214.65 821.10 214.16 C 805.39 213.23 789.71 211.77 774.06 210.15 C 754.15 208.57 734.27 206.66 714.35 205.39 C 690.22 203.64 666.20 200.29 642.00 199.62 C 641.96 209.77 643.53 219.82 644.06 229.93 C 644.83 240.30 645.17 250.70 645.94 261.07 C 646.42 270.40 647.76 279.66 648.03 289.01 C 648.54 301.67 649.84 314.28 650.79 326.91 C 651.05 336.56 652.10 346.17 652.39 355.82 C 662.63 355.86 672.82 354.81 683.04 354.52 C 697.20 353.69 711.38 353.07 725.54 352.26 C 737.63 351.02 749.79 351.13 761.91 350.44 C 785.24 348.46 808.67 348.17 832.03 346.76 C 840.43 346.71 848.76 345.35 857.16 345.22 C 859.07 345.18 860.98 345.18 862.90 345.17 C 864.28 352.46 865.98 359.68 867.32 366.98 C 859.18 367.20 851.05 367.79 842.93 368.34 C 821.68 370.19 800.37 371.41 779.08 372.56 C 760.40 374.43 741.64 374.93 722.93 376.26 C 716.64 376.68 710.38 377.42 704.09 377.77 C 688.20 378.33 672.35 379.65 656.49 380.70 C 657.94 411.88 661.20 442.94 662.90 474.11 C 622.60 474.47 582.29 474.06 541.99 474.32 C 538.56 474.26 535.05 474.30 531.75 473.29 C 528.01 472.12 525.07 468.90 524.08 465.14 C 522.91 460.84 523.05 456.34 522.84 451.94 C 522.63 444.62 521.50 437.38 521.14 430.08 C 520.84 424.86 520.91 419.62 520.31 414.42 C 519.64 408.31 517.32 402.55 514.96 396.94 C 510.44 386.79 504.49 377.22 496.92 369.06 C 494.77 366.83 492.71 364.23 489.74 363.09 C 486.55 362.33 483.23 362.60 479.99 362.59 C 472.65 362.77 465.30 362.63 457.96 362.56 C 454.82 362.63 451.24 362.48 448.81 364.83 C 438.24 374.19 433.94 388.37 432.06 401.92 C 431.18 408.00 431.91 414.14 432.40 420.22 C 433.04 427.65 432.97 435.12 433.77 442.53 C 434.46 449.01 434.99 455.51 434.91 462.02 C 421.31 460.09 407.58 459.34 394.00 457.29 C 366.06 454.59 338.22 451.08 310.29 448.31 C 300.25 446.94 290.12 446.45 280.11 444.96 C 269.20 443.34 258.17 442.86 247.22 441.53 C 237.82 440.49 228.47 439.00 219.03 438.26 C 207.68 437.35 196.44 435.36 185.06 434.74 C 184.88 427.47 184.09 420.25 183.45 413.01 C 182.77 405.58 183.43 397.95 181.32 390.70 C 178.63 381.62 174.40 372.94 168.51 365.50 C 167.27 364.07 165.91 362.37 163.87 362.25 C 157.92 361.61 151.93 362.24 145.96 362.09 C 143.37 366.30 141.18 370.73 138.83 375.07 C 134.85 375.35 130.87 375.41 126.89 375.25 C 124.56 371.55 122.20 367.86 119.87 364.16 C 114.93 364.06 109.98 364.04 105.03 364.08 C 102.72 367.93 100.43 371.89 99.36 376.31 C 96.45 387.25 97.97 398.65 98.59 409.78 C 99.22 417.07 99.28 424.42 100.31 431.68 C 82.76 424.40 65.57 416.29 48.13 408.76 C 45.95 407.74 43.60 406.95 41.76 405.37 C 40.80 403.10 40.46 400.64 40.00 398.24 C 35.61 372.74 35.58 346.78 35.17 320.99 C 35.25 308.67 35.52 296.35 35.75 284.03 C 36.25 274.34 36.71 264.65 36.77 254.95 C 59.69 251.30 82.50 247.01 105.42 243.31 C 129.09 238.98 152.88 235.24 176.53 230.78 C 197.50 227.56 218.31 223.47 239.27 220.16 C 262.93 215.70 286.75 212.12 310.41 207.63 C 319.01 206.42 327.56 204.84 336.11 203.29 C 347.36 201.67 358.45 199.17 369.71 197.57 C 401.66 191.87 433.66 186.48 465.62 180.82 C 465.88 172.53 466.17 164.23 466.33 155.93 C 466.58 143.90 467.96 131.93 469.82 120.05 C 471.17 110.12 473.14 100.27 475.83 90.61 C 478.11 82.44 481.31 74.57 484.03 66.54 C 480.90 67.19 477.77 67.87 474.70 68.73 C 457.28 73.88 439.62 78.13 422.18 83.20 C 328.37 108.62 234.70 134.55 140.88 159.95 C 113.63 167.25 86.47 174.90 59.23 182.25 C 55.17 183.36 51.07 184.33 46.95 185.16 C 47.69 183.57 48.17 181.69 49.64 180.59 C 51.28 179.39 53.23 178.72 55.14 178.09 C 68.30 174.11 81.68 170.87 94.85 166.90 C 110.78 162.42 126.62 157.63 142.63 153.42 C 157.28 149.19 171.95 145.04 186.60 140.80 C 211.19 134.21 235.54 126.75 260.12 120.10 C 292.00 110.90 323.99 102.07 355.88 92.89 C 405.09 79.09 454.20 64.96 503.41 51.18 C 530.84 43.22 558.38 35.70 585.81 27.76 M 579.69 179.50 C 571.67 180.79 563.55 181.25 555.58 182.80 C 545.73 184.71 535.70 185.38 525.81 187.03 C 516.90 188.53 507.98 190.04 498.99 191.03 C 486.62 192.35 474.42 194.82 462.10 196.44 C 448.58 198.70 434.99 200.51 421.45 202.67 C 415.14 203.90 408.77 204.78 402.40 205.64 C 393.22 206.84 384.19 208.94 375.00 209.99 C 370.42 210.56 365.87 211.33 361.33 212.19 C 352.60 213.87 343.72 214.57 334.99 216.21 C 327.40 217.62 319.73 218.49 312.14 219.93 C 300.90 221.99 289.50 223.06 278.29 225.32 C 276.58 236.39 274.90 247.47 272.72 258.46 C 271.23 267.90 269.71 277.33 267.86 286.71 C 264.13 310.61 259.15 334.31 255.64 358.25 C 286.10 358.62 316.55 357.71 347.01 357.66 C 381.67 357.40 416.34 357.02 451.00 356.68 C 467.33 356.82 483.66 356.19 499.99 356.31 C 546.10 355.71 592.21 355.58 638.32 354.99 C 636.29 331.71 635.80 308.33 633.37 285.09 C 632.90 277.73 632.92 270.33 632.00 263.00 C 630.98 255.05 631.13 247.01 630.48 239.03 C 628.54 222.08 628.24 205.00 626.88 188.00 C 626.61 182.94 626.54 177.82 625.24 172.89 C 609.99 174.59 594.83 177.06 579.69 179.50 M 231.42 237.32 C 230.63 244.69 229.01 251.94 228.16 259.31 C 227.28 266.48 225.51 273.51 224.70 280.69 C 218.02 281.04 211.34 281.34 204.70 282.10 C 205.83 268.21 209.07 254.58 210.46 240.72 C 203.06 241.06 195.75 242.25 188.42 243.26 C 187.80 250.43 186.34 257.48 185.31 264.59 C 180.96 293.80 175.99 322.92 172.05 352.18 C 179.25 352.46 186.45 352.42 193.64 351.96 C 193.88 347.30 194.31 342.65 195.34 338.09 C 196.81 331.71 197.12 325.13 198.51 318.73 C 199.35 314.89 199.88 311.00 200.25 307.09 C 206.90 306.63 213.58 306.68 220.23 306.02 C 218.09 321.28 215.81 336.53 212.99 351.69 C 220.89 351.75 228.79 351.52 236.69 351.76 C 237.07 346.28 238.17 340.90 239.21 335.52 C 240.63 326.31 242.35 317.15 243.72 307.94 C 244.71 301.27 246.38 294.71 247.08 288.00 C 247.93 279.94 250.01 272.07 251.10 264.05 C 252.42 254.18 254.16 244.38 255.86 234.58 C 247.72 235.52 239.56 236.32 231.42 237.32 M 136.24 250.36 C 131.10 265.85 125.95 281.35 120.62 296.78 C 117.29 304.78 115.25 313.22 112.27 321.35 C 109.72 328.49 107.57 335.76 104.85 342.83 C 103.55 346.20 102.51 349.65 101.61 353.14 C 107.73 353.47 113.87 353.38 119.99 353.07 C 122.07 346.80 124.02 340.48 125.98 334.17 C 133.32 333.77 140.67 333.47 148.02 333.72 C 148.30 340.06 148.45 346.41 148.26 352.75 C 155.12 352.62 161.98 352.63 168.85 352.63 C 167.57 345.46 167.76 338.14 167.05 330.91 C 166.54 325.51 166.72 320.06 166.16 314.67 C 165.45 307.79 165.62 300.86 164.78 293.99 C 163.87 285.41 163.88 276.78 163.32 268.18 C 162.21 261.35 162.27 254.43 161.96 247.54 C 153.35 248.09 144.87 249.92 136.24 250.36 M 93.51 256.33 C 83.21 258.30 72.75 258.99 62.37 260.31 C 61.91 272.35 58.67 284.03 57.92 296.04 C 57.48 303.64 55.69 311.06 54.73 318.60 C 53.56 330.47 51.33 342.21 50.53 354.13 C 55.66 354.11 60.78 354.06 65.91 353.87 C 68.18 338.60 70.06 323.27 72.17 307.97 C 73.03 298.38 74.86 288.93 76.21 279.41 C 81.10 279.09 85.97 278.67 90.84 278.18 C 89.93 288.52 87.92 298.72 86.74 309.03 C 84.57 323.93 83.03 338.92 80.17 353.72 C 86.05 353.66 91.94 353.63 97.82 353.68 C 98.85 347.49 99.63 341.27 100.32 335.04 C 103.87 308.03 108.34 281.16 111.91 254.16 C 105.71 254.22 99.58 255.14 93.51 256.33 Z" />
<path fill="#ffffff" opacity="1.00" d=" M 524.16 199.22 C 544.36 189.33 567.83 189.05 589.62 192.74 C 595.04 193.83 600.14 196.06 605.22 198.20 C 602.14 206.15 597.77 213.49 594.09 221.15 C 592.18 225.17 590.15 229.13 587.99 233.02 C 582.59 230.90 577.08 229.07 571.58 227.24 C 564.18 224.51 556.10 225.07 548.40 225.70 C 538.82 227.64 530.54 233.99 524.66 241.63 C 518.14 250.94 513.58 261.71 511.94 273.00 C 510.52 282.79 509.52 293.01 512.35 302.65 C 513.93 308.11 518.30 312.68 523.77 314.31 C 530.84 316.67 538.30 314.77 545.44 313.77 C 555.16 312.51 563.89 307.82 573.08 304.73 C 573.38 309.81 573.41 314.91 573.34 320.00 C 573.22 326.28 573.68 332.57 573.06 338.84 C 565.69 342.09 558.03 344.88 550.06 346.22 C 545.37 347.07 540.72 348.24 535.95 348.56 C 531.64 348.85 527.32 348.76 523.01 348.80 C 517.54 348.81 511.93 348.89 506.67 347.13 C 501.89 345.56 497.02 343.98 492.72 341.30 C 485.71 336.70 479.89 330.20 476.49 322.51 C 473.24 314.80 471.14 306.47 471.28 298.06 C 471.39 290.13 470.84 282.11 472.57 274.32 C 475.11 259.19 480.01 244.28 488.30 231.30 C 496.76 217.41 509.35 205.99 524.16 199.22 Z" />
<path fill="#ffffff" opacity="1.00" d=" M 461.91 206.22 C 470.76 205.70 479.38 203.48 488.17 202.43 C 486.80 205.55 485.32 208.62 483.67 211.61 C 468.51 241.09 453.02 270.42 437.85 299.91 C 433.81 307.26 430.38 314.94 426.09 322.16 C 421.17 330.80 415.29 339.31 406.81 344.80 C 400.27 349.02 392.42 350.38 384.79 350.99 C 378.21 351.45 371.71 350.08 365.26 348.98 C 365.16 339.95 365.29 330.92 365.15 321.89 C 371.40 322.19 377.68 323.75 383.94 322.72 C 389.36 321.84 393.31 317.23 395.22 312.34 C 395.90 310.62 395.39 308.75 395.06 307.02 C 393.24 299.33 391.47 291.63 389.12 284.08 C 384.27 262.22 377.95 240.72 373.53 218.77 C 377.39 218.04 381.26 217.36 385.16 216.88 C 392.13 216.09 399.03 214.64 406.07 214.62 C 407.56 221.38 408.97 228.15 410.09 234.98 C 412.89 249.39 416.29 263.72 417.65 278.36 C 420.63 273.07 422.23 267.19 424.54 261.61 C 426.91 255.66 429.51 249.82 432.03 243.94 C 437.26 232.07 442.01 220.00 447.22 208.12 C 452.09 207.34 456.97 206.54 461.91 206.22 Z" />
<path fill="#ffffff" opacity="1.00" d=" M 347.29 221.72 C 352.91 220.91 358.60 220.62 364.23 219.83 C 363.52 229.52 360.58 238.85 359.38 248.47 C 347.44 250.21 335.35 250.60 323.40 252.29 C 322.40 258.78 320.86 265.16 320.06 271.68 C 324.71 271.61 329.38 271.35 334.01 271.88 C 339.20 272.46 344.07 274.74 348.28 277.75 C 353.04 281.17 356.04 286.48 358.02 291.89 C 360.18 297.70 359.82 304.01 359.76 310.10 C 359.71 314.24 358.76 318.31 357.38 322.20 C 353.89 333.97 344.31 343.76 332.63 347.54 C 326.66 349.68 320.29 350.37 313.98 350.35 C 302.33 350.27 290.68 350.90 279.03 350.71 C 279.99 343.41 282.04 336.29 282.88 328.97 C 283.61 322.26 285.27 315.70 286.21 309.02 C 287.22 301.55 288.70 294.15 289.97 286.71 C 291.88 277.39 292.99 267.92 294.81 258.58 C 296.95 248.52 297.97 238.27 300.24 228.23 C 305.79 227.82 311.31 227.08 316.77 225.94 C 326.86 223.98 337.16 223.47 347.29 221.72 M 315.10 298.21 C 313.50 306.86 312.51 315.61 311.46 324.34 C 315.48 324.24 319.96 324.80 323.48 322.41 C 326.85 320.01 329.49 316.26 329.72 312.03 C 330.04 307.97 330.09 303.19 326.82 300.21 C 323.85 296.90 318.99 298.32 315.10 298.21 Z" />
<path fill="#ffffff" opacity="1.00" d=" M 782.14 223.91 C 793.05 223.65 803.96 223.69 814.87 223.88 C 815.20 227.74 815.70 231.59 816.26 235.43 C 817.16 241.58 817.38 247.81 818.35 253.96 C 819.19 259.30 819.85 264.67 820.31 270.06 C 820.99 278.75 822.97 287.30 823.30 296.02 C 814.82 296.01 806.34 296.05 797.86 295.99 C 797.77 292.96 797.70 289.93 797.67 286.89 C 799.10 286.87 800.54 286.84 801.98 286.83 C 797.52 282.00 793.49 276.79 789.08 271.93 C 787.37 269.90 785.24 267.85 785.09 265.04 C 784.63 260.30 784.73 255.53 784.09 250.82 C 782.89 241.89 782.99 232.86 782.14 223.91 Z" />
<path fill="#ffffff" opacity="1.00" d=" M 825.86 226.68 C 831.93 226.61 838.00 226.44 844.08 226.65 C 847.86 256.54 850.53 286.57 854.22 316.48 C 855.24 324.41 856.19 332.36 856.56 340.35 C 854.96 340.34 853.36 340.27 851.78 340.15 C 851.40 340.05 850.65 339.85 850.27 339.75 C 845.62 334.95 843.65 328.00 843.89 321.41 C 844.58 319.85 846.51 318.35 845.69 316.50 C 843.11 314.80 840.24 313.66 837.51 312.28 C 835.36 304.69 834.89 296.79 833.95 289.00 C 833.07 278.95 830.93 269.05 830.05 259.00 C 829.10 248.17 826.89 237.50 825.86 226.68 Z" />
<path fill="#ffffff" opacity="1.00" d=" M 140.04 288.91 C 142.50 281.64 144.67 274.29 146.67 266.89 C 146.35 281.73 147.06 296.54 147.39 311.37 C 142.59 311.65 137.78 311.82 132.97 311.77 C 135.53 304.21 137.78 296.55 140.04 288.91 Z" />
<path fill="#ffffff" opacity="1.00" d=" M 147.60 376.57 C 150.49 372.41 156.43 370.88 160.97 373.12 C 166.39 375.72 170.47 380.60 172.97 385.98 C 174.32 388.66 174.23 391.72 174.18 394.64 C 171.02 393.41 168.76 390.89 166.54 388.45 C 162.98 384.55 157.28 382.57 152.12 383.98 C 149.17 385.30 146.84 387.63 144.19 389.44 C 143.61 384.87 144.60 380.15 147.60 376.57 Z" />
<path fill="#ffffff" opacity="1.00" d=" M 104.14 381.19 C 105.83 377.82 108.90 374.51 112.99 374.66 C 119.27 374.78 124.03 379.86 127.06 384.88 C 128.93 387.71 129.10 391.16 129.07 394.45 C 126.14 393.00 123.85 390.67 121.61 388.36 C 118.71 385.37 114.20 383.84 110.13 384.91 C 107.43 385.91 105.20 387.81 102.81 389.38 C 102.85 386.61 102.67 383.67 104.14 381.19 Z" />
<path fill="#ffffff" opacity="1.00" d=" M 464.80 381.79 C 470.12 376.59 478.65 375.76 485.29 378.74 C 494.55 382.85 501.66 390.98 505.69 400.16 C 507.19 403.37 507.17 406.96 507.10 410.43 C 505.17 409.95 502.97 409.96 501.42 408.56 C 498.54 406.12 496.30 403.02 493.35 400.66 C 487.68 396.10 480.41 392.70 472.97 394.01 C 467.11 394.74 462.70 399.01 458.73 402.99 C 457.84 401.41 456.39 399.90 456.71 397.94 C 457.23 391.80 460.45 386.06 464.80 381.79 Z" />
<path fill="#ffffff" opacity="1.00" d=" M 153.48 387.53 C 156.85 386.21 160.90 386.97 163.59 389.39 C 169.83 394.75 172.80 402.99 173.93 410.93 C 174.78 419.18 174.11 428.69 167.96 434.91 C 165.54 437.38 161.59 438.02 158.48 436.54 C 154.97 434.92 152.35 431.86 150.43 428.59 C 144.99 419.26 143.54 407.71 146.37 397.30 C 147.47 393.38 149.76 389.44 153.48 387.53 Z" />
<path fill="#ffffff" opacity="1.00" d=" M 110.53 388.45 C 114.32 386.38 118.96 388.37 121.62 391.37 C 126.56 396.97 128.75 404.58 128.86 411.95 C 128.94 417.00 128.51 422.37 125.68 426.71 C 124.06 429.27 121.28 431.52 118.08 431.20 C 114.26 430.78 111.04 428.13 108.97 425.02 C 103.90 417.17 102.47 407.29 104.32 398.20 C 105.20 394.40 107.18 390.60 110.53 388.45 Z" />
<path fill="#ffffff" opacity="1.00" d=" M 475.31 399.25 C 484.68 397.11 492.56 404.50 497.50 411.56 C 503.26 420.58 506.40 431.30 506.36 442.01 C 506.51 449.95 505.00 458.07 501.02 465.02 C 498.87 468.68 495.77 471.96 491.84 473.71 C 487.00 475.65 481.26 474.96 476.92 472.10 C 469.89 467.67 465.36 460.27 462.29 452.73 C 457.91 440.64 456.48 426.94 460.76 414.62 C 463.18 407.87 467.81 400.81 475.31 399.25 Z" />
<path fill="#ffffff" opacity="1.00" d=" M 858.07 410.34 C 860.79 410.07 863.53 409.92 866.27 409.71 C 867.30 415.49 867.51 421.38 867.78 427.23 C 867.73 428.71 868.03 430.57 866.55 431.48 C 864.04 431.89 861.48 431.77 858.96 431.81 C 858.18 424.69 857.08 417.49 858.07 410.34 Z" />
<path fill="#ffffff" opacity="1.00" d=" M 837.06 412.78 C 842.96 412.12 848.84 410.96 854.82 411.21 C 855.45 412.74 856.14 414.30 856.20 416.00 C 856.58 420.92 856.80 425.85 856.85 430.79 C 852.54 432.31 847.93 432.23 843.45 432.76 C 836.66 433.50 829.89 434.59 823.05 434.79 C 821.72 434.75 820.09 434.90 819.33 433.56 C 818.40 431.91 818.44 429.92 818.22 428.10 C 817.96 423.61 817.26 419.03 818.45 414.62 C 824.61 413.57 830.87 413.53 837.06 412.78 Z" />
<path fill="#ffffff" opacity="1.00" d=" M 737.43 420.67 C 741.01 420.35 745.28 419.10 748.38 421.56 C 749.96 423.22 749.48 425.79 749.82 427.89 C 749.93 432.18 750.67 436.52 750.03 440.79 C 749.49 443.07 747.00 443.67 745.00 443.92 C 730.35 445.63 715.64 446.82 700.96 448.32 C 698.99 448.35 696.44 448.79 695.13 446.92 C 693.93 444.13 694.18 440.98 693.88 438.02 C 693.82 434.18 693.03 430.17 694.32 426.46 C 696.14 424.86 698.68 424.63 700.99 424.33 C 705.29 423.90 709.61 423.61 713.90 423.05 C 721.72 422.04 729.64 422.01 737.43 420.67 Z" />
<path fill="#ffffff" opacity="1.00" d=" M 105.59 425.68 C 109.67 429.29 114.18 432.34 118.97 434.92 C 117.72 435.93 116.81 437.97 114.93 437.77 C 111.81 437.30 109.31 434.99 107.41 432.61 C 105.79 430.68 105.90 428.03 105.59 425.68 Z" />
<path fill="#ffffff" opacity="1.00" d=" M 676.95 427.27 C 680.56 424.63 685.59 425.58 689.78 426.06 C 690.96 430.62 690.75 435.36 691.12 440.03 C 691.25 442.92 691.61 445.86 691.06 448.74 C 687.60 451.68 682.39 450.31 678.23 449.92 C 677.06 445.37 677.33 440.64 676.97 436.00 C 676.82 433.09 676.46 430.16 676.95 427.27 Z" />
<path fill="#ffffff" opacity="1.00" d=" M 146.93 430.57 C 151.58 434.37 156.33 438.09 161.92 440.44 C 161.55 441.77 161.55 443.44 160.18 444.20 C 158.67 445.30 156.65 444.67 155.18 443.83 C 152.52 442.30 150.18 440.16 148.47 437.61 C 147.08 435.54 147.22 432.93 146.93 430.57 Z" />
<path fill="#ffffff" opacity="1.00" d=" M 462.12 471.95 C 460.85 469.54 461.43 466.77 461.74 464.21 C 465.38 466.88 468.61 470.04 472.17 472.81 C 476.20 476.01 481.29 477.27 485.88 479.42 C 486.54 484.34 480.68 487.59 476.52 485.49 C 470.44 482.74 465.00 478.05 462.12 471.95 Z" />
</g>
<g id="#ce4e38ff">
<path fill="#ce4e38" opacity="1.00" d=" M 623.75 39.74 C 626.16 37.98 628.85 36.28 631.96 36.30 C 645.69 35.93 659.40 37.01 673.09 38.07 C 684.37 39.23 695.58 40.99 706.83 42.45 C 727.01 46.17 747.19 50.72 766.18 58.67 C 775.10 62.04 783.56 66.48 791.86 71.15 C 794.96 74.27 795.25 79.98 792.17 83.22 C 790.31 85.19 787.99 86.64 785.79 88.19 C 787.69 91.59 789.72 94.90 791.82 98.19 C 808.10 124.57 824.28 151.03 840.55 177.43 C 843.23 181.55 845.98 185.66 848.08 190.13 C 836.58 188.77 825.10 187.26 813.66 185.46 C 795.39 183.25 777.22 180.39 758.97 178.03 C 745.17 175.70 731.19 174.59 717.37 172.33 C 709.57 171.08 701.69 170.36 693.90 169.07 C 688.76 168.23 683.63 167.41 678.47 166.80 C 665.35 165.23 652.29 163.20 639.18 161.52 C 632.92 160.73 626.63 159.27 620.29 160.07 C 611.77 161.08 603.25 162.10 594.79 163.52 C 567.33 167.30 539.84 170.88 512.37 174.63 C 506.62 175.61 500.86 176.50 495.06 177.06 C 495.19 171.03 495.33 164.99 495.37 158.96 C 495.40 149.62 496.51 140.32 496.36 130.98 C 496.23 121.30 497.47 111.66 497.34 101.98 C 497.28 96.77 497.50 91.56 498.02 86.37 C 519.02 81.70 539.66 75.56 560.54 70.38 C 568.67 68.28 576.74 65.96 584.91 64.01 C 589.37 62.98 593.61 61.09 597.27 58.33 C 605.99 51.98 615.07 46.14 623.75 39.74 Z" />
<path fill="#ce4e38" opacity="1.00" d=" M 474.70 68.73 C 477.77 67.87 480.90 67.19 484.03 66.54 C 481.31 74.57 478.11 82.44 475.83 90.61 C 473.14 100.27 471.17 110.12 469.82 120.05 C 467.96 131.93 466.58 143.90 466.33 155.93 C 466.17 164.23 465.88 172.53 465.62 180.82 C 433.66 186.48 401.66 191.87 369.71 197.57 C 358.45 199.17 347.36 201.67 336.11 203.29 C 327.56 204.84 319.01 206.42 310.41 207.63 C 286.75 212.12 262.93 215.70 239.27 220.16 C 218.31 223.47 197.50 227.56 176.53 230.78 C 152.88 235.24 129.09 238.98 105.42 243.31 C 82.50 247.01 59.69 251.30 36.77 254.95 C 37.27 244.40 37.83 233.84 39.16 223.36 C 40.12 216.15 40.55 208.86 42.01 201.73 C 43.03 196.16 44.89 190.81 46.19 185.32 L 46.95 185.16 C 51.07 184.33 55.17 183.36 59.23 182.25 C 86.47 174.90 113.63 167.25 140.88 159.95 C 234.70 134.55 328.37 108.62 422.18 83.20 C 439.62 78.13 457.28 73.88 474.70 68.73 Z" />
<path fill="#ce4e38" opacity="1.00" d=" M 579.69 179.50 C 594.83 177.06 609.99 174.59 625.24 172.89 C 626.54 177.82 626.61 182.94 626.88 188.00 C 628.24 205.00 628.54 222.08 630.48 239.03 C 631.13 247.01 630.98 255.05 632.00 263.00 C 632.92 270.33 632.90 277.73 633.37 285.09 C 635.80 308.33 636.29 331.71 638.32 354.99 C 592.21 355.58 546.10 355.71 499.99 356.31 C 483.66 356.19 467.33 356.82 451.00 356.68 C 416.34 357.02 381.67 357.40 347.01 357.66 C 316.55 357.71 286.10 358.62 255.64 358.25 C 259.15 334.31 264.13 310.61 267.86 286.71 C 269.71 277.33 271.23 267.90 272.72 258.46 C 274.90 247.47 276.58 236.39 278.29 225.32 C 289.50 223.06 300.90 221.99 312.14 219.93 C 319.73 218.49 327.40 217.62 334.99 216.21 C 343.72 214.57 352.60 213.87 361.33 212.19 C 365.87 211.33 370.42 210.56 375.00 209.99 C 384.19 208.94 393.22 206.84 402.40 205.64 C 408.77 204.78 415.14 203.90 421.45 202.67 C 434.99 200.51 448.58 198.70 462.10 196.44 C 474.42 194.82 486.62 192.35 498.99 191.03 C 507.98 190.04 516.90 188.53 525.81 187.03 C 535.70 185.38 545.73 184.71 555.58 182.80 C 563.55 181.25 571.67 180.79 579.69 179.50 M 524.16 199.22 C 509.35 205.99 496.76 217.41 488.30 231.30 C 480.01 244.28 475.11 259.19 472.57 274.32 C 470.84 282.11 471.39 290.13 471.28 298.06 C 471.14 306.47 473.24 314.80 476.49 322.51 C 479.89 330.20 485.71 336.70 492.72 341.30 C 497.02 343.98 501.89 345.56 506.67 347.13 C 511.93 348.89 517.54 348.81 523.01 348.80 C 527.32 348.76 531.64 348.85 535.95 348.56 C 540.72 348.24 545.37 347.07 550.06 346.22 C 558.03 344.88 565.69 342.09 573.06 338.84 C 573.68 332.57 573.22 326.28 573.34 320.00 C 573.41 314.91 573.38 309.81 573.08 304.73 C 563.89 307.82 555.16 312.51 545.44 313.77 C 538.30 314.77 530.84 316.67 523.77 314.31 C 518.30 312.68 513.93 308.11 512.35 302.65 C 509.52 293.01 510.52 282.79 511.94 273.00 C 513.58 261.71 518.14 250.94 524.66 241.63 C 530.54 233.99 538.82 227.64 548.40 225.70 C 556.10 225.07 564.18 224.51 571.58 227.24 C 577.08 229.07 582.59 230.90 587.99 233.02 C 590.15 229.13 592.18 225.17 594.09 221.15 C 597.77 213.49 602.14 206.15 605.22 198.20 C 600.14 196.06 595.04 193.83 589.62 192.74 C 567.83 189.05 544.36 189.33 524.16 199.22 M 461.91 206.22 C 456.97 206.54 452.09 207.34 447.22 208.12 C 442.01 220.00 437.26 232.07 432.03 243.94 C 429.51 249.82 426.91 255.66 424.54 261.61 C 422.23 267.19 420.63 273.07 417.65 278.36 C 416.29 263.72 412.89 249.39 410.09 234.98 C 408.97 228.15 407.56 221.38 406.07 214.62 C 399.03 214.64 392.13 216.09 385.16 216.88 C 381.26 217.36 377.39 218.04 373.53 218.77 C 377.95 240.72 384.27 262.22 389.12 284.08 C 391.47 291.63 393.24 299.33 395.06 307.02 C 395.39 308.75 395.90 310.62 395.22 312.34 C 393.31 317.23 389.36 321.84 383.94 322.72 C 377.68 323.75 371.40 322.19 365.15 321.89 C 365.29 330.92 365.16 339.95 365.26 348.98 C 371.71 350.08 378.21 351.45 384.79 350.99 C 392.42 350.38 400.27 349.02 406.81 344.80 C 415.29 339.31 421.17 330.80 426.09 322.16 C 430.38 314.94 433.81 307.26 437.85 299.91 C 453.02 270.42 468.51 241.09 483.67 211.61 C 485.32 208.62 486.80 205.55 488.17 202.43 C 479.38 203.48 470.76 205.70 461.91 206.22 M 347.29 221.72 C 337.16 223.47 326.86 223.98 316.77 225.94 C 311.31 227.08 305.79 227.82 300.24 228.23 C 297.97 238.27 296.95 248.52 294.81 258.58 C 292.99 267.92 291.88 277.39 289.97 286.71 C 288.70 294.15 287.22 301.55 286.21 309.02 C 285.27 315.70 283.61 322.26 282.88 328.97 C 282.04 336.29 279.99 343.41 279.03 350.71 C 290.68 350.90 302.33 350.27 313.98 350.35 C 320.29 350.37 326.66 349.68 332.63 347.54 C 344.31 343.76 353.89 333.97 357.38 322.20 C 358.76 318.31 359.71 314.24 359.76 310.10 C 359.82 304.01 360.18 297.70 358.02 291.89 C 356.04 286.48 353.04 281.17 348.28 277.75 C 344.07 274.74 339.20 272.46 334.01 271.88 C 329.38 271.35 324.71 271.61 320.06 271.68 C 320.86 265.16 322.40 258.78 323.40 252.29 C 335.35 250.60 347.44 250.21 359.38 248.47 C 360.58 238.85 363.52 229.52 364.23 219.83 C 358.60 220.62 352.91 220.91 347.29 221.72 Z" />
<path fill="#ce4e38" opacity="1.00" d=" M 642.00 199.62 C 666.20 200.29 690.22 203.64 714.35 205.39 C 734.27 206.66 754.15 208.57 774.06 210.15 C 789.71 211.77 805.39 213.23 821.10 214.16 C 829.40 214.65 837.65 216.54 846.00 215.58 C 844.99 219.03 844.40 222.58 843.95 226.14 C 837.92 226.50 831.88 226.23 825.86 226.68 C 826.89 237.50 829.10 248.17 830.05 259.00 C 830.93 269.05 833.07 278.95 833.95 289.00 C 834.89 296.79 835.36 304.69 837.51 312.28 C 840.24 313.66 843.11 314.80 845.69 316.50 C 846.51 318.35 844.58 319.85 843.89 321.41 C 843.65 328.00 845.62 334.95 850.27 339.75 C 850.65 339.85 851.40 340.05 851.78 340.15 C 853.53 340.51 855.32 340.68 857.11 340.90 C 857.13 342.34 857.14 343.78 857.16 345.22 C 848.76 345.35 840.43 346.71 832.03 346.76 C 808.67 348.17 785.24 348.46 761.91 350.44 C 749.79 351.13 737.63 351.02 725.54 352.26 C 711.38 353.07 697.20 353.69 683.04 354.52 C 672.82 354.81 662.63 355.86 652.39 355.82 C 652.10 346.17 651.05 336.56 650.79 326.91 C 649.84 314.28 648.54 301.67 648.03 289.01 C 647.76 279.66 646.42 270.40 645.94 261.07 C 645.17 250.70 644.83 240.30 644.06 229.93 C 643.53 219.82 641.96 209.77 642.00 199.62 M 782.14 223.91 C 782.99 232.86 782.89 241.89 784.09 250.82 C 784.73 255.53 784.63 260.30 785.09 265.04 C 785.24 267.85 787.37 269.90 789.08 271.93 C 793.49 276.79 797.52 282.00 801.98 286.83 C 800.54 286.84 799.10 286.87 797.67 286.89 C 797.70 289.93 797.77 292.96 797.86 295.99 C 806.34 296.05 814.82 296.01 823.30 296.02 C 822.97 287.30 820.99 278.75 820.31 270.06 C 819.85 264.67 819.19 259.30 818.35 253.96 C 817.38 247.81 817.16 241.58 816.26 235.43 C 815.70 231.59 815.20 227.74 814.87 223.88 C 803.96 223.69 793.05 223.65 782.14 223.91 Z" />
<path fill="#ce4e38" opacity="1.00" d=" M 231.42 237.32 C 239.56 236.32 247.72 235.52 255.86 234.58 C 254.16 244.38 252.42 254.18 251.10 264.05 C 250.01 272.07 247.93 279.94 247.08 288.00 C 246.38 294.71 244.71 301.27 243.72 307.94 C 242.35 317.15 240.63 326.31 239.21 335.52 C 238.17 340.90 237.07 346.28 236.69 351.76 C 228.79 351.52 220.89 351.75 212.99 351.69 C 215.81 336.53 218.09 321.28 220.23 306.02 C 213.58 306.68 206.90 306.63 200.25 307.09 C 199.88 311.00 199.35 314.89 198.51 318.73 C 197.12 325.13 196.81 331.71 195.34 338.09 C 194.31 342.65 193.88 347.30 193.64 351.96 C 186.45 352.42 179.25 352.46 172.05 352.18 C 175.99 322.92 180.96 293.80 185.31 264.59 C 186.34 257.48 187.80 250.43 188.42 243.26 C 195.75 242.25 203.06 241.06 210.46 240.72 C 209.07 254.58 205.83 268.21 204.70 282.10 C 211.34 281.34 218.02 281.04 224.70 280.69 C 225.51 273.51 227.28 266.48 228.16 259.31 C 229.01 251.94 230.63 244.69 231.42 237.32 Z" />
<path fill="#ce4e38" opacity="1.00" d=" M 136.24 250.36 C 144.87 249.92 153.35 248.09 161.96 247.54 C 162.27 254.43 162.21 261.35 163.32 268.18 C 163.88 276.78 163.87 285.41 164.78 293.99 C 165.62 300.86 165.45 307.79 166.16 314.67 C 166.72 320.06 166.54 325.51 167.05 330.91 C 167.76 338.14 167.57 345.46 168.85 352.63 C 161.98 352.63 155.12 352.62 148.26 352.75 C 148.45 346.41 148.30 340.06 148.02 333.72 C 140.67 333.47 133.32 333.77 125.98 334.17 C 124.02 340.48 122.07 346.80 119.99 353.07 C 113.87 353.38 107.73 353.47 101.61 353.14 C 102.51 349.65 103.55 346.20 104.85 342.83 C 107.57 335.76 109.72 328.49 112.27 321.35 C 115.25 313.22 117.29 304.78 120.62 296.78 C 125.95 281.35 131.10 265.85 136.24 250.36 M 140.04 288.91 C 137.78 296.55 135.53 304.21 132.97 311.77 C 137.78 311.82 142.59 311.65 147.39 311.37 C 147.06 296.54 146.35 281.73 146.67 266.89 C 144.67 274.29 142.50 281.64 140.04 288.91 Z" />
<path fill="#ce4e38" opacity="1.00" d=" M 93.51 256.33 C 99.58 255.14 105.71 254.22 111.91 254.16 C 108.34 281.16 103.87 308.03 100.32 335.04 C 99.63 341.27 98.85 347.49 97.82 353.68 C 91.94 353.63 86.05 353.66 80.17 353.72 C 83.03 338.92 84.57 323.93 86.74 309.03 C 87.92 298.72 89.93 288.52 90.84 278.18 C 85.97 278.67 81.10 279.09 76.21 279.41 C 74.86 288.93 73.03 298.38 72.17 307.97 C 70.06 323.27 68.18 338.60 65.91 353.87 C 60.78 354.06 55.66 354.11 50.53 354.13 C 51.33 342.21 53.56 330.47 54.73 318.60 C 55.69 311.06 57.48 303.64 57.92 296.04 C 58.67 284.03 61.91 272.35 62.37 260.31 C 72.75 258.99 83.21 258.30 93.51 256.33 Z" />
<path fill="#ce4e38" opacity="1.00" d=" M 315.10 298.21 C 318.99 298.32 323.85 296.90 326.82 300.21 C 330.09 303.19 330.04 307.97 329.72 312.03 C 329.49 316.26 326.85 320.01 323.48 322.41 C 319.96 324.80 315.48 324.24 311.46 324.34 C 312.51 315.61 313.50 306.86 315.10 298.21 Z" />
<path fill="#ce4e38" opacity="1.00" d=" M 145.96 362.09 C 151.93 362.24 157.92 361.61 163.87 362.25 C 165.91 362.37 167.27 364.07 168.51 365.50 C 174.40 372.94 178.63 381.62 181.32 390.70 C 183.43 397.95 182.77 405.58 183.45 413.01 C 184.09 420.25 184.88 427.47 185.06 434.74 C 196.44 435.36 207.68 437.35 219.03 438.26 C 228.47 439.00 237.82 440.49 247.22 441.53 C 258.17 442.86 269.20 443.34 280.11 444.96 C 290.12 446.45 300.25 446.94 310.29 448.31 C 338.22 451.08 366.06 454.59 394.00 457.29 C 407.58 459.34 421.31 460.09 434.91 462.02 C 434.99 455.51 434.46 449.01 433.77 442.53 C 432.97 435.12 433.04 427.65 432.40 420.22 C 431.91 414.14 431.18 408.00 432.06 401.92 C 433.94 388.37 438.24 374.19 448.81 364.83 C 451.24 362.48 454.82 362.63 457.96 362.56 C 465.30 362.63 472.65 362.77 479.99 362.59 C 483.23 362.60 486.55 362.33 489.74 363.09 C 492.71 364.23 494.77 366.83 496.92 369.06 C 504.49 377.22 510.44 386.79 514.96 396.94 C 517.32 402.55 519.64 408.31 520.31 414.42 C 520.91 419.62 520.84 424.86 521.14 430.08 C 521.50 437.38 522.63 444.62 522.84 451.94 C 523.05 456.34 522.91 460.84 524.08 465.14 C 525.07 468.90 528.01 472.12 531.75 473.29 C 535.05 474.30 538.56 474.26 541.99 474.32 C 582.29 474.06 622.60 474.47 662.90 474.11 C 661.20 442.94 657.94 411.88 656.49 380.70 C 672.35 379.65 688.20 378.33 704.09 377.77 C 710.38 377.42 716.64 376.68 722.93 376.26 C 741.64 374.93 760.40 374.43 779.08 372.56 C 800.37 371.41 821.68 370.19 842.93 368.34 C 851.05 367.79 859.18 367.20 867.32 366.98 C 869.83 377.84 870.38 389.30 868.05 400.24 C 869.84 403.98 871.34 407.93 871.60 412.12 C 872.23 420.38 872.22 428.86 869.90 436.88 C 868.57 441.61 865.23 445.45 861.65 448.66 C 857.70 452.16 852.35 453.14 847.40 454.39 C 845.55 458.22 843.68 462.04 841.76 465.83 C 827.58 467.57 813.28 467.92 799.11 469.68 C 789.00 470.02 779.02 471.74 768.93 472.12 C 762.27 472.46 755.69 473.68 749.03 473.95 C 741.33 474.21 733.73 475.61 726.04 475.95 C 719.93 476.25 713.84 476.83 707.76 477.47 C 732.33 480.12 756.94 482.51 781.55 484.75 C 802.41 487.02 823.30 489.09 844.21 490.84 C 848.62 491.26 853.02 491.80 857.42 492.32 C 863.65 493.09 869.98 493.01 876.13 494.34 C 870.45 495.28 864.74 496.08 859.02 496.75 C 816.85 502.61 774.69 508.42 732.51 514.20 C 724.12 515.58 715.66 516.49 707.24 517.64 C 699.53 518.84 691.79 519.93 684.06 520.95 C 675.53 522.10 667.05 520.08 658.61 519.20 C 648.71 518.14 638.90 516.39 629.02 515.25 C 609.59 512.82 590.15 510.53 570.73 508.10 C 541.98 503.81 513.01 501.21 484.27 496.90 C 465.14 494.63 446.01 492.33 426.90 489.86 C 401.55 486.08 376.05 483.58 350.66 480.14 C 323.91 476.37 297.01 473.72 270.27 469.86 C 249.42 467.34 228.61 464.46 207.73 462.15 C 182.88 458.63 157.96 455.67 133.05 452.66 C 117.04 450.13 100.87 448.74 84.84 446.37 C 92.76 444.72 100.86 444.11 108.84 442.83 C 105.45 439.60 101.96 436.16 100.31 431.68 C 99.28 424.42 99.22 417.07 98.59 409.78 C 97.97 398.65 96.45 387.25 99.36 376.31 C 100.43 371.89 102.72 367.93 105.03 364.08 C 109.98 364.04 114.93 364.06 119.87 364.16 C 122.20 367.86 124.56 371.55 126.89 375.25 C 130.87 375.41 134.85 375.35 138.83 375.07 C 141.18 370.73 143.37 366.30 145.96 362.09 M 147.60 376.57 C 144.60 380.15 143.61 384.87 144.19 389.44 C 146.84 387.63 149.17 385.30 152.12 383.98 C 157.28 382.57 162.98 384.55 166.54 388.45 C 168.76 390.89 171.02 393.41 174.18 394.64 C 174.23 391.72 174.32 388.66 172.97 385.98 C 170.47 380.60 166.39 375.72 160.97 373.12 C 156.43 370.88 150.49 372.41 147.60 376.57 M 104.14 381.19 C 102.67 383.67 102.85 386.61 102.81 389.38 C 105.20 387.81 107.43 385.91 110.13 384.91 C 114.20 383.84 118.71 385.37 121.61 388.36 C 123.85 390.67 126.14 393.00 129.07 394.45 C 129.10 391.16 128.93 387.71 127.06 384.88 C 124.03 379.86 119.27 374.78 112.99 374.66 C 108.90 374.51 105.83 377.82 104.14 381.19 M 464.80 381.79 C 460.45 386.06 457.23 391.80 456.71 397.94 C 456.39 399.90 457.84 401.41 458.73 402.99 C 462.70 399.01 467.11 394.74 472.97 394.01 C 480.41 392.70 487.68 396.10 493.35 400.66 C 496.30 403.02 498.54 406.12 501.42 408.56 C 502.97 409.96 505.17 409.95 507.10 410.43 C 507.17 406.96 507.19 403.37 505.69 400.16 C 501.66 390.98 494.55 382.85 485.29 378.74 C 478.65 375.76 470.12 376.59 464.80 381.79 M 153.48 387.53 C 149.76 389.44 147.47 393.38 146.37 397.30 C 143.54 407.71 144.99 419.26 150.43 428.59 C 152.35 431.86 154.97 434.92 158.48 436.54 C 161.59 438.02 165.54 437.38 167.96 434.91 C 174.11 428.69 174.78 419.18 173.93 410.93 C 172.80 402.99 169.83 394.75 163.59 389.39 C 160.90 386.97 156.85 386.21 153.48 387.53 M 110.53 388.45 C 107.18 390.60 105.20 394.40 104.32 398.20 C 102.47 407.29 103.90 417.17 108.97 425.02 C 111.04 428.13 114.26 430.78 118.08 431.20 C 121.28 431.52 124.06 429.27 125.68 426.71 C 128.51 422.37 128.94 417.00 128.86 411.95 C 128.75 404.58 126.56 396.97 121.62 391.37 C 118.96 388.37 114.32 386.38 110.53 388.45 M 475.31 399.25 C 467.81 400.81 463.18 407.87 460.76 414.62 C 456.48 426.94 457.91 440.64 462.29 452.73 C 465.36 460.27 469.89 467.67 476.92 472.10 C 481.26 474.96 487.00 475.65 491.84 473.71 C 495.77 471.96 498.87 468.68 501.02 465.02 C 505.00 458.07 506.51 449.95 506.36 442.01 C 506.40 431.30 503.26 420.58 497.50 411.56 C 492.56 404.50 484.68 397.11 475.31 399.25 M 858.07 410.34 C 857.08 417.49 858.18 424.69 858.96 431.81 C 861.48 431.77 864.04 431.89 866.55 431.48 C 868.03 430.57 867.73 428.71 867.78 427.23 C 867.51 421.38 867.30 415.49 866.27 409.71 C 863.53 409.92 860.79 410.07 858.07 410.34 M 837.06 412.78 C 830.87 413.53 824.61 413.57 818.45 414.62 C 817.26 419.03 817.96 423.61 818.22 428.10 C 818.44 429.92 818.40 431.91 819.33 433.56 C 820.09 434.90 821.72 434.75 823.05 434.79 C 829.89 434.59 836.66 433.50 843.45 432.76 C 847.93 432.23 852.54 432.31 856.85 430.79 C 856.80 425.85 856.58 420.92 856.20 416.00 C 856.14 414.30 855.45 412.74 854.82 411.21 C 848.84 410.96 842.96 412.12 837.06 412.78 M 737.43 420.67 C 729.64 422.01 721.72 422.04 713.90 423.05 C 709.61 423.61 705.29 423.90 700.99 424.33 C 698.68 424.63 696.14 424.86 694.32 426.46 C 693.03 430.17 693.82 434.18 693.88 438.02 C 694.18 440.98 693.93 444.13 695.13 446.92 C 696.44 448.79 698.99 448.35 700.96 448.32 C 715.64 446.82 730.35 445.63 745.00 443.92 C 747.00 443.67 749.49 443.07 750.03 440.79 C 750.67 436.52 749.93 432.18 749.82 427.89 C 749.48 425.79 749.96 423.22 748.38 421.56 C 745.28 419.10 741.01 420.35 737.43 420.67 M 105.59 425.68 C 105.90 428.03 105.79 430.68 107.41 432.61 C 109.31 434.99 111.81 437.30 114.93 437.77 C 116.81 437.97 117.72 435.93 118.97 434.92 C 114.18 432.34 109.67 429.29 105.59 425.68 M 676.95 427.27 C 676.46 430.16 676.82 433.09 676.97 436.00 C 677.33 440.64 677.06 445.37 678.23 449.92 C 682.39 450.31 687.60 451.68 691.06 448.74 C 691.61 445.86 691.25 442.92 691.12 440.03 C 690.75 435.36 690.96 430.62 689.78 426.06 C 685.59 425.58 680.56 424.63 676.95 427.27 M 146.93 430.57 C 147.22 432.93 147.08 435.54 148.47 437.61 C 150.18 440.16 152.52 442.30 155.18 443.83 C 156.65 444.67 158.67 445.30 160.18 444.20 C 161.55 443.44 161.55 441.77 161.92 440.44 C 156.33 438.09 151.58 434.37 146.93 430.57 M 462.12 471.95 C 465.00 478.05 470.44 482.74 476.52 485.49 C 480.68 487.59 486.54 484.34 485.88 479.42 C 481.29 477.27 476.20 476.01 472.17 472.81 C 468.61 470.04 465.38 466.88 461.74 464.21 C 461.43 466.77 460.85 469.54 462.12 471.95 Z" />
</g>
</svg>
