<?xml version="1.0" encoding="UTF-8" ?>
<!DOCTYPE svg PUBLIC "-//W3C//DTD SVG 1.1//EN" "http://www.w3.org/Graphics/SVG/1.1/DTD/svg11.dtd">
<svg width="1000pt" height="198pt" viewBox="0 0 1000 198" version="1.1" xmlns="http://www.w3.org/2000/svg">
<g id="#ffffffff">
<path fill="#ffffff" opacity="1.00" d=" M 836.51 15.79 C 856.24 13.06 876.91 17.51 893.66 28.32 C 909.97 38.68 922.59 54.76 928.65 73.13 C 934.17 89.64 934.43 107.85 929.39 124.52 C 923.97 142.69 912.21 158.86 896.65 169.68 C 881.72 180.26 863.25 185.59 844.99 184.93 C 828.25 184.39 811.69 178.75 798.18 168.84 C 783.42 158.22 772.24 142.70 766.85 125.32 C 761.99 109.77 761.74 92.82 766.14 77.13 C 770.93 59.68 781.59 43.94 795.89 32.88 C 807.61 23.72 821.77 17.75 836.51 15.79 M 837.39 32.83 C 815.16 36.21 795.22 51.44 786.05 71.98 C 778.23 89.01 777.97 109.33 785.42 126.53 C 792.46 143.28 806.51 156.88 823.46 163.42 C 840.47 170.09 860.19 169.45 876.72 161.64 C 893.76 153.73 907.18 138.47 912.81 120.54 C 917.35 106.43 917.02 90.81 911.95 76.88 C 906.54 61.90 895.68 48.97 881.85 41.07 C 868.55 33.33 852.58 30.40 837.39 32.83 Z" />
<path fill="#ffffff" opacity="1.00" d=" M 85.84 38.88 C 96.08 32.76 108.12 30.10 119.98 30.20 C 134.31 29.97 148.45 33.89 161.28 40.10 C 158.04 48.37 154.93 56.71 151.29 64.82 C 144.59 62.03 137.96 58.97 130.93 57.07 C 122.25 54.89 112.47 55.02 104.57 59.64 C 97.15 63.93 92.43 71.69 89.91 79.69 C 86.68 90.34 86.44 101.69 87.67 112.67 C 88.73 121.32 91.22 130.24 97.13 136.88 C 102.32 142.74 110.21 145.47 117.88 145.84 C 130.93 146.55 143.45 142.29 155.83 138.78 C 156.11 147.37 156.12 155.97 155.81 164.56 C 138.64 171.05 119.71 173.28 101.60 169.97 C 88.78 167.58 76.76 160.57 69.04 149.95 C 60.97 139.03 57.33 125.46 56.24 112.09 C 54.86 95.89 56.28 78.99 63.28 64.12 C 68.06 53.71 75.95 44.70 85.84 38.88 Z" />
<path fill="#ffffff" opacity="1.00" d=" M 234.42 30.80 C 246.94 29.31 259.92 29.50 272.08 33.14 C 282.79 36.30 292.63 42.68 299.39 51.63 C 310.41 65.83 313.40 84.44 313.26 101.98 C 313.07 119.25 309.46 137.50 298.12 151.07 C 288.95 162.23 275.13 168.77 260.96 170.57 C 246.04 172.49 230.30 171.63 216.41 165.46 C 203.12 159.61 192.80 147.95 187.81 134.41 C 182.48 120.09 181.56 104.47 182.79 89.36 C 184.08 74.49 188.69 59.24 199.15 48.18 C 208.25 38.27 221.21 32.57 234.42 30.80 M 240.36 56.11 C 234.37 57.17 228.63 60.00 224.55 64.56 C 218.37 71.27 215.79 80.43 214.72 89.29 C 213.60 99.67 213.82 110.30 216.29 120.48 C 218.09 127.95 221.85 135.24 228.12 139.91 C 234.04 144.41 241.71 145.83 249.00 145.66 C 256.31 145.45 263.90 143.45 269.42 138.43 C 275.58 132.81 278.69 124.64 280.15 116.60 C 282.05 105.35 281.97 93.73 279.72 82.53 C 278.05 74.46 274.49 66.29 267.70 61.25 C 259.95 55.51 249.62 54.60 240.36 56.11 Z" />
<path fill="#ffffff" opacity="1.00" d=" M 345.29 32.29 C 359.86 32.21 374.44 32.27 389.01 32.25 C 399.75 32.41 410.72 33.84 420.54 38.43 C 427.00 41.49 432.67 46.43 436.03 52.80 C 440.30 60.79 441.12 70.16 440.26 79.04 C 439.25 88.64 433.87 97.44 426.43 103.45 C 423.23 106.04 419.61 108.02 415.98 109.92 C 424.77 123.72 434.12 137.16 443.18 150.80 C 447.22 157.07 451.89 162.95 455.44 169.53 C 444.35 170.00 433.25 169.62 422.15 169.75 C 412.13 153.81 402.21 137.81 392.35 121.77 C 391.34 120.32 390.42 118.69 388.88 117.75 C 384.48 117.14 380.01 117.58 375.59 117.60 C 375.40 134.95 375.58 152.29 375.50 169.63 C 365.44 169.84 355.38 169.77 345.32 169.68 C 345.19 123.89 345.25 78.09 345.29 32.29 M 375.59 57.59 C 375.46 69.20 375.45 80.81 375.59 92.42 C 384.89 92.43 395.03 93.21 403.34 88.25 C 409.91 84.25 411.13 75.33 409.14 68.47 C 407.89 63.88 403.68 60.86 399.35 59.48 C 391.69 57.00 383.52 57.47 375.59 57.59 Z" />
<path fill="#ffffff" opacity="1.00" d=" M 476.13 32.28 C 502.71 32.24 529.29 32.24 555.87 32.28 C 556.12 40.62 555.94 48.97 556.04 57.31 C 539.56 57.82 523.07 57.28 506.59 57.59 C 506.48 66.98 506.40 76.38 506.65 85.77 C 521.89 85.76 537.13 85.67 552.38 85.81 C 552.56 94.20 552.59 102.59 552.35 110.98 C 537.10 111.04 521.84 110.97 506.59 111.01 C 506.45 122.14 506.45 133.28 506.59 144.41 C 523.07 144.72 539.56 144.19 556.04 144.69 C 555.94 153.03 556.12 161.38 555.88 169.72 C 529.29 169.76 502.71 169.76 476.12 169.72 C 475.83 128.82 476.10 87.91 475.99 47.01 C 475.96 42.10 476.01 37.18 476.13 32.28 Z" />
<path fill="#ffffff" opacity="1.00" d=" M 839.63 58.59 C 842.15 56.71 844.55 53.95 847.97 54.02 C 853.17 53.78 858.37 54.06 863.57 54.11 C 863.46 87.10 863.47 120.08 863.56 153.07 C 856.19 153.36 848.81 153.36 841.44 153.07 C 841.68 128.05 841.11 103.02 842.02 78.00 C 836.44 83.38 830.43 88.27 824.16 92.81 C 820.46 88.56 816.95 84.16 813.58 79.65 C 821.97 72.28 831.06 65.76 839.63 58.59 Z" />
</g>
<g id="#1e8bc3ff">
<path fill="#1e8bc3" opacity="1.00" d=" M 587.94 32.27 C 597.98 32.26 608.02 32.25 618.06 32.28 C 618.32 38.52 618.34 44.76 618.27 51.01 C 618.27 81.67 618.27 112.34 618.27 143.00 C 618.22 151.91 618.47 160.82 618.06 169.72 C 608.03 169.74 598.00 169.77 587.97 169.71 C 587.66 163.48 587.65 157.24 587.73 151.00 C 587.73 120.33 587.73 89.67 587.73 59.00 C 587.78 50.09 587.53 41.18 587.94 32.27 Z" />
<path fill="#1e8bc3" opacity="1.00" d=" M 642.94 32.28 C 677.57 32.29 712.20 32.23 746.83 32.31 C 747.12 40.77 747.13 49.23 746.82 57.69 C 734.56 57.86 722.30 57.55 710.04 57.83 C 709.93 88.22 710.05 118.61 709.99 149.00 C 710.05 155.90 710.09 162.80 709.82 169.70 C 699.86 169.77 689.90 169.74 679.94 169.72 C 679.68 163.49 679.65 157.24 679.73 151.00 C 679.73 119.97 679.72 88.93 679.74 57.90 C 667.48 57.49 655.21 57.86 642.94 57.72 C 642.58 49.24 642.58 40.76 642.94 32.28 Z" />
</g>
</svg>
